<svg width="54" height="46" viewBox="0 0 54 46" fill="none" xmlns="http://www.w3.org/2000/svg">
<path d="M27 0.5C12.28 0.5 0.333313 10.58 0.333313 23C0.333313 35.42 12.28 45.5 27 45.5C41.72 45.5 53.6666 35.42 53.6666 23C53.6666 10.58 41.72 0.5 27 0.5ZM27 7.25C31.4266 7.25 35 10.265 35 14C35 17.735 31.4266 20.75 27 20.75C22.5733 20.75 19 17.735 19 14C19 10.265 22.5733 7.25 27 7.25ZM27 39.2C20.3333 39.2 14.44 36.32 11 31.955C11.08 27.4775 21.6666 25.025 27 25.025C32.3066 25.025 42.92 27.4775 43 31.955C39.56 36.32 33.6666 39.2 27 39.2Z" fill="black"/>
</svg>
